<svg width="42" height="42" viewBox="0 0 42 42" fill="none" xmlns="http://www.w3.org/2000/svg">
<g clip-path="url(#clip0_19_398)">
<path d="M41.7224 20.3271L32.1772 10.7818C31.8343 10.3814 31.2317 10.3347 30.8313 10.6777C30.4309 11.0206 30.3843 11.6232 30.7272 12.0236C30.7592 12.0609 30.794 12.0957 30.8313 12.1277L38.7443 20.0503H0.954499C0.427375 20.0503 0 20.4776 0 21.0048C0 21.532 0.427375 21.9593 0.954499 21.9593H38.7443L30.8313 29.8723C30.4309 30.2152 30.3843 30.8178 30.7272 31.2182C31.0702 31.6186 31.6727 31.6653 32.0731 31.3223C32.1104 31.2903 32.1453 31.2555 32.1772 31.2182L41.7225 21.6729C42.0925 21.3007 42.0925 20.6994 41.7224 20.3271Z" fill="#58B158"/>
</g>
<defs>
<clipPath id="clip0_19_398">
<rect width="42" height="42" fill="white"/>
</clipPath>
</defs>
</svg>
