<svg width="27" height="27" viewBox="0 0 27 27" fill="none" xmlns="http://www.w3.org/2000/svg">
<g clip-path="url(#clip0_13_303)">
<path d="M13.6732 10.0203C12.1522 10.0203 10.9191 11.2534 10.9191 12.7745C10.9191 14.2955 12.1521 15.5286 13.6732 15.5286C15.1943 15.5286 16.4274 14.2956 16.4274 12.7745C16.4274 11.2534 15.1943 10.0203 13.6732 10.0203ZM13.6732 14.2171C12.8765 14.2171 12.2306 13.5712 12.2306 12.7744C12.2306 11.9777 12.8765 11.3318 13.6732 11.3318C14.47 11.3318 15.1159 11.9777 15.1159 12.7744C15.1159 13.5712 14.47 14.2171 13.6732 14.2171Z" fill="black"/>
<path d="M24.657 3.72511L6.75512 1.69234C6.06034 1.59356 5.35639 1.79639 4.8207 2.24975C4.28506 2.66507 3.94172 3.28072 3.86986 3.95467L3.54202 6.64325H2.52554C1.08288 6.64325 0.000886063 7.92192 0.000886063 9.36459V22.7746C-0.0354503 24.1503 1.05031 25.295 2.42607 25.3314C2.45921 25.3323 2.49241 25.3324 2.52554 25.332H20.5258C21.9685 25.332 23.28 24.2173 23.28 22.7746V22.25C23.7272 22.1636 24.1515 21.9849 24.5259 21.7254C25.0571 21.2781 25.3973 20.6447 25.4767 19.9549L26.9849 6.64325C27.1387 5.19726 26.101 3.89649 24.657 3.72511ZM21.9685 22.7746C21.9685 23.4959 21.2471 24.0205 20.5258 24.0205H2.52554C1.87394 24.0396 1.33021 23.5269 1.31107 22.8753C1.31006 22.8417 1.3105 22.8082 1.31238 22.7746V20.3483L6.39446 16.6106C7.00496 16.1419 7.86486 16.1835 8.42729 16.7089L12.0011 19.8565C12.5438 20.3122 13.227 20.5669 13.9356 20.5778C14.4896 20.5846 15.0345 20.4371 15.5094 20.1516L21.9685 16.4138V22.7746H21.9685ZM21.9685 14.8728L14.8208 19.0368C14.207 19.4005 13.4302 19.3346 12.8863 18.8729L9.27972 15.6925C8.24604 14.8043 6.73523 14.7498 5.6403 15.5613L1.31238 18.7089V9.36459C1.31238 8.64326 1.80421 7.95475 2.52554 7.95475H20.5258C21.2964 7.98669 21.9188 8.59493 21.9685 9.36459V14.8728ZM25.6747 6.46621C25.6743 6.47054 25.6739 6.47493 25.6734 6.47926L24.1324 19.7909C24.135 20.1361 23.9776 20.463 23.7061 20.6762C23.575 20.8073 23.2799 20.8729 23.2799 20.9385V9.36459C23.2281 7.8709 22.0199 6.67707 20.5257 6.64325H4.85346L5.14854 4.08583C5.21255 3.75466 5.3857 3.45456 5.64037 3.23334C5.92792 3.03453 6.2756 2.94183 6.62402 2.97102L24.4932 5.0366C25.2141 5.10507 25.7432 5.74513 25.6747 6.46621Z" fill="black"/>
</g>
<defs>
<clipPath id="clip0_13_303">
<rect width="27" height="27" fill="white"/>
</clipPath>
</defs>
</svg>
