<svg width="72" height="72" viewBox="0 0 72 72" fill="none" xmlns="http://www.w3.org/2000/svg">
<path d="M19.9205 17.2046L18.3295 18.7956L20.5795 21.0456C20.684 21.1501 20.808 21.233 20.9445 21.2895C21.081 21.346 21.2273 21.3751 21.375 21.3751C21.5227 21.3751 21.669 21.346 21.8055 21.2895C21.942 21.233 22.066 21.1501 22.1705 21.0456L27.7955 15.4206L26.2045 13.8296L21.375 18.6592L19.9205 17.2046Z" fill="#58B158"/>
<path d="M25.875 19.1249C25.874 20.0926 25.5607 21.0342 24.9818 21.8097C24.4028 22.5851 23.5891 23.153 22.6615 23.429C21.734 23.705 20.7422 23.6743 19.8335 23.3415C18.9248 23.0087 18.1477 22.3915 17.6178 21.5817C17.0879 20.772 16.8335 19.8128 16.8923 18.8469C16.9512 17.881 17.3201 16.9598 17.9444 16.2203C18.5686 15.4808 19.4148 14.9625 20.3572 14.7425C21.2996 14.5224 22.2878 14.6123 23.175 14.9988L24.075 12.9374C22.7427 12.3558 21.2582 12.2198 19.8423 12.5496C18.4264 12.8794 17.1549 13.6575 16.2168 14.7681C15.2786 15.8786 14.7241 17.2624 14.6356 18.7134C14.547 20.1645 14.9293 21.6054 15.7255 22.8218C16.5216 24.0381 17.6892 24.965 19.0544 25.4645C20.4197 25.964 21.9097 26.0095 23.3029 25.5941C24.696 25.1787 25.9179 24.3247 26.7867 23.1592C27.6556 21.9936 28.1249 20.5787 28.125 19.1249H25.875Z" fill="#58B158"/>
<path d="M19.9205 34.0796L18.3295 35.6706L20.5795 37.9206C20.684 38.0251 20.808 38.108 20.9445 38.1645C21.081 38.221 21.2273 38.2501 21.375 38.2501C21.5227 38.2501 21.669 38.221 21.8055 38.1645C21.942 38.108 22.066 38.0251 22.1705 37.9206L27.7955 32.2956L26.2045 30.7046L21.375 35.5342L19.9205 34.0796Z" fill="#58B158"/>
<path d="M25.875 35.9999C25.874 36.9676 25.5607 37.9092 24.9818 38.6847C24.4028 39.4601 23.5891 40.028 22.6615 40.304C21.734 40.58 20.7422 40.5493 19.8335 40.2165C18.9248 39.8837 18.1477 39.2665 17.6178 38.4567C17.0879 37.647 16.8335 36.6878 16.8923 35.7219C16.9512 34.756 17.3201 33.8348 17.9444 33.0953C18.5686 32.3558 19.4148 31.8375 20.3572 31.6175C21.2996 31.3974 22.2878 31.4873 23.175 31.8738L24.075 29.8124C22.7427 29.2308 21.2582 29.0948 19.8423 29.4246C18.4264 29.7544 17.1549 30.5325 16.2168 31.6431C15.2786 32.7536 14.7241 34.1374 14.6356 35.5884C14.547 37.0395 14.9293 38.4804 15.7255 39.6968C16.5216 40.9131 17.6892 41.84 19.0544 42.3395C20.4197 42.839 21.9097 42.8845 23.3029 42.4691C24.696 42.0537 25.9179 41.1997 26.7867 40.0342C27.6556 38.8686 28.1249 37.4537 28.125 35.9999H25.875Z" fill="#58B158"/>
<path d="M19.9205 50.9546L18.3295 52.5456L20.5795 54.7956C20.684 54.9001 20.808 54.983 20.9445 55.0395C21.081 55.096 21.2273 55.1251 21.375 55.1251C21.5227 55.1251 21.669 55.096 21.8055 55.0395C21.942 54.983 22.066 54.9001 22.1705 54.7956L27.7955 49.1706L26.2045 47.5796L21.375 52.4092L19.9205 50.9546Z" fill="#58B158"/>
<path d="M14.625 52.875C14.625 54.6652 15.3362 56.3821 16.602 57.6479C17.8679 58.9138 19.5848 59.625 21.375 59.625C23.1652 59.625 24.8821 58.9138 26.148 57.6479C27.4138 56.3821 28.125 54.6652 28.125 52.875H25.875C25.874 53.8427 25.5607 54.7843 24.9818 55.5598C24.4028 56.3353 23.5891 56.9033 22.6615 57.1793C21.7339 57.4553 20.742 57.4246 19.8333 57.0918C18.9246 56.759 18.1475 56.1418 17.6176 55.332C17.0876 54.5222 16.8332 53.563 16.892 52.597C16.9509 51.631 17.3199 50.7098 17.9441 49.9703C18.5684 49.2308 19.4147 48.7125 20.3571 48.4925C21.2995 48.2724 22.2878 48.3623 23.175 48.7489L24.075 46.6875C23.0476 46.2399 21.9251 46.055 20.8085 46.1495C19.6918 46.2441 18.6163 46.6149 17.6788 47.2288C16.7413 47.8426 15.9712 48.6802 15.4381 49.6658C14.905 50.6515 14.6256 51.7544 14.625 52.875Z" fill="#58B158"/>
<path d="M61.875 11.25H58.5V7.875C58.5 7.57663 58.3815 7.29048 58.1705 7.0795C57.9595 6.86853 57.6734 6.75 57.375 6.75H52.875V9H56.25V63H11.25V9H46.125V6.75H43.875C43.875 6.15326 44.1121 5.58097 44.534 5.15901C44.956 4.73705 45.5283 4.5 46.125 4.5C46.7217 4.5 47.294 4.73705 47.716 5.15901C48.1379 5.58097 48.375 6.15326 48.375 6.75V13.5C48.375 13.7984 48.2565 14.0845 48.0455 14.2955C47.8345 14.5065 47.5484 14.625 47.25 14.625C46.9516 14.625 46.6655 14.5065 46.4545 14.2955C46.2435 14.0845 46.125 13.7984 46.125 13.5V11.25H43.875V13.5C43.875 14.3951 44.2306 15.2536 44.8635 15.8865C45.4965 16.5194 46.3549 16.875 47.25 16.875C48.1451 16.875 49.0035 16.5194 49.6365 15.8865C50.2694 15.2536 50.625 14.3951 50.625 13.5V6.75C50.625 5.55653 50.1509 4.41193 49.307 3.56802C48.4631 2.72411 47.3185 2.25 46.125 2.25C44.9315 2.25 43.7869 2.72411 42.943 3.56802C42.0991 4.41193 41.625 5.55653 41.625 6.75H10.125C9.82663 6.75 9.54048 6.86853 9.32951 7.0795C9.11853 7.29048 9 7.57663 9 7.875V64.125C9 64.4234 9.11853 64.7095 9.32951 64.9205C9.54048 65.1315 9.82663 65.25 10.125 65.25H13.5V68.625C13.5 68.9234 13.6185 69.2095 13.8295 69.4205C14.0405 69.6315 14.3266 69.75 14.625 69.75H61.875C62.1734 69.75 62.4595 69.6315 62.6705 69.4205C62.8815 69.2095 63 68.9234 63 68.625V12.375C63 12.0766 62.8815 11.7905 62.6705 11.5795C62.4595 11.3685 62.1734 11.25 61.875 11.25ZM60.75 67.5H15.75V65.25H57.375C57.6734 65.25 57.9595 65.1315 58.1705 64.9205C58.3815 64.7095 58.5 64.4234 58.5 64.125V13.5H60.75V67.5Z" fill="#58B158"/>
<path d="M29.25 23.625H49.5V25.875H29.25V23.625Z" fill="#58B158"/>
<path d="M31.5 19.125H52.875V21.375H31.5V19.125Z" fill="#58B158"/>
<path d="M29.25 40.5H49.5V42.75H29.25V40.5Z" fill="#58B158"/>
<path d="M31.5 36H52.875V38.25H31.5V36Z" fill="#58B158"/>
<path d="M31.5 31.5H52.875V33.75H31.5V31.5Z" fill="#58B158"/>
<path d="M29.25 56.25H49.5V58.5H29.25V56.25Z" fill="#58B158"/>
<path d="M31.5 51.75H52.875V54H31.5V51.75Z" fill="#58B158"/>
<path d="M31.5 47.25H52.875V49.5H31.5V47.25Z" fill="#58B158"/>
</svg>
