<svg width="79" height="79" viewBox="0 0 79 79" fill="none" xmlns="http://www.w3.org/2000/svg">
<path d="M61.31 68.1338L54.6149 64.1673" stroke="#58B158" stroke-width="2" stroke-miterlimit="10" stroke-linecap="round" stroke-linejoin="round"/>
<path d="M57.1439 71.1396L52.2108 68.2171" stroke="#58B158" stroke-width="2" stroke-miterlimit="10" stroke-linecap="round" stroke-linejoin="round"/>
<path d="M52.095 73.6226L50.1619 72.4774" stroke="#58B158" stroke-width="2" stroke-miterlimit="10" stroke-linecap="round" stroke-linejoin="round"/>
<path d="M22.919 30.3008H55.4878" stroke="#58B158" stroke-width="2" stroke-miterlimit="10" stroke-linecap="round" stroke-linejoin="round"/>
<path d="M22.919 23.3608H39.2034" stroke="#58B158" stroke-width="2" stroke-miterlimit="10" stroke-linecap="round" stroke-linejoin="round"/>
<path d="M22.919 36.4497H55.4878" stroke="#58B158" stroke-width="2" stroke-miterlimit="10" stroke-linecap="round" stroke-linejoin="round"/>
<mask id="mask0_44_226" style="mask-type:luminance" maskUnits="userSpaceOnUse" x="11" y="11" width="68" height="68">
<path d="M11 11H79V79H11V11Z" fill="white"/>
</mask>
<g mask="url(#mask0_44_226)">
<path d="M51.2299 12.2762V19.2577C51.2299 21.5239 53.0669 23.3608 55.333 23.3608H62.3145" stroke="#58B158" stroke-width="2" stroke-miterlimit="10" stroke-linecap="round" stroke-linejoin="round"/>
<path d="M62.5946 41.6855V24.6484C62.5946 23.8241 62.267 23.0334 61.6843 22.4505L52.1404 12.9066C51.5573 12.3237 50.7667 11.9962 49.9423 11.9962H19.9153C17.6493 11.9962 15.8123 13.8331 15.8123 16.0993V68.9512C15.8123 71.2173 17.6493 73.0542 19.9153 73.0542H30.3381" stroke="#58B158" stroke-width="2" stroke-miterlimit="10" stroke-linecap="round" stroke-linejoin="round"/>
<path d="M35.9333 46.9782L33.8716 45.7568C33.3043 45.4206 32.572 45.6081 32.236 46.1752L23.7589 60.4841C23.4229 61.0514 23.6103 61.7836 24.1776 62.1196L26.2395 63.3411C27.6225 64.1604 29.4077 63.7036 30.2272 62.3206L36.954 50.9659C37.7733 49.5828 37.3164 47.7975 35.9333 46.9782Z" stroke="#58B158" stroke-width="2" stroke-miterlimit="10" stroke-linecap="round" stroke-linejoin="round"/>
<path d="M64.3998 56.9987L67.5525 62.3205C68.372 63.7035 70.1574 64.1605 71.5404 63.3412L73.6023 62.1197C74.1695 61.7835 74.3569 61.0515 74.0208 60.4841L65.5437 46.1753C65.2077 45.608 64.4754 45.4206 63.9083 45.7567L61.8464 46.9783C60.4634 47.7976 60.0064 49.5828 60.8258 50.966L62.015 52.9733" stroke="#58B158" stroke-width="2" stroke-miterlimit="10" stroke-linecap="round" stroke-linejoin="round"/>
<path d="M48.7866 51.6979L48.4465 51.4965C46.4907 50.3741 45.576 50.1667 43.8114 50.8487L41.8883 51.5923C40.718 52.0447 39.4047 51.9355 38.3252 51.296L37.136 50.5947" stroke="#58B158" stroke-width="2" stroke-miterlimit="10" stroke-linecap="round" stroke-linejoin="round"/>
<path d="M29.7682 62.9039L31.761 64.0801" stroke="#58B158" stroke-width="2" stroke-miterlimit="10" stroke-linecap="round" stroke-linejoin="round"/>
<path d="M46.5038 75.7845L49.6944 77.6747C50.8133 78.3377 52.2578 77.9678 52.9207 76.849C53.5837 75.73 53.2138 74.2855 52.095 73.6227L54.7433 75.1916C55.8623 75.8545 57.3068 75.4848 57.9697 74.3659C58.6325 73.2471 58.2628 71.8026 57.1439 71.1396L58.9095 72.1856C60.0284 72.8485 61.4729 72.4788 62.1357 71.36C62.7986 70.241 62.4289 68.7965 61.3099 68.1337L63.4708 69.4137C64.5896 70.0765 66.0339 69.7068 66.6967 68.588C67.3595 67.4692 66.9899 66.025 65.8711 65.362" stroke="#58B158" stroke-width="2" stroke-miterlimit="10" stroke-linecap="round" stroke-linejoin="round"/>
<path d="M60.9258 51.1349L60.6485 51.2961C59.569 51.9356 58.2558 52.0449 57.0854 51.5924L54.9166 50.7403C54.2382 50.4738 53.4935 50.4267 52.787 50.6056L49.4639 51.4466C47.917 51.838 46.8334 53.23 46.8334 54.8257V59.2615C46.8334 59.8888 47.3416 60.3989 47.9688 60.3993C49.8602 60.4005 51.3938 58.8677 51.3938 56.9766V56.7888L65.6176 65.2119C65.8811 64.9313 66.1832 64.6886 66.5155 64.4917L68.5308 63.3143" stroke="#58B158" stroke-width="2" stroke-miterlimit="10" stroke-linecap="round" stroke-linejoin="round"/>
<path d="M34.0134 68.9624C33.2551 70.0186 31.7842 70.2601 30.7281 69.5019C29.672 68.7437 29.4304 67.2727 30.1886 66.2165L31.5221 64.3591C32.2804 63.303 33.7512 63.0613 34.8075 63.8197C35.8637 64.5779 36.1052 66.0488 35.3469 67.1049" stroke="#58B158" stroke-width="2" stroke-miterlimit="10" stroke-linecap="round" stroke-linejoin="round"/>
<path d="M40.6434 67.8011L37.8381 71.7085C37.0799 72.7647 35.609 73.0062 34.5529 72.248C33.4966 71.4897 33.2552 70.0188 34.0134 68.9627L36.8185 65.0552C37.5769 63.9991 39.0476 63.7577 40.1039 64.5159C41.1602 65.2741 41.4016 66.7449 40.6434 67.8011Z" stroke="#58B158" stroke-width="2" stroke-miterlimit="10" stroke-linecap="round" stroke-linejoin="round"/>
<path d="M40.6434 67.801C41.4016 66.7447 42.8724 66.5033 43.9285 67.2615C44.9848 68.0196 45.2264 69.4906 44.4681 70.5467L41.6629 74.4542C40.9046 75.5103 39.4339 75.7518 38.3775 74.9936C37.3214 74.2353 37.0799 72.7646 37.8381 71.7083" stroke="#58B158" stroke-width="2" stroke-miterlimit="10" stroke-linecap="round" stroke-linejoin="round"/>
<path d="M43.2216 72.2829C43.9798 71.2268 45.4507 70.9852 46.5068 71.7435C47.5629 72.5017 47.8046 73.9726 47.0463 75.0287L46.1134 76.3282C45.3552 77.3843 43.8844 77.6259 42.8282 76.8676C41.772 76.1094 41.5306 74.6384 42.2888 73.5823" stroke="#58B158" stroke-width="2" stroke-miterlimit="10" stroke-linecap="round" stroke-linejoin="round"/>
</g>
</svg>
