<svg width="55" height="55" viewBox="0 0 55 55" fill="none" xmlns="http://www.w3.org/2000/svg">
<g clip-path="url(#clip0_44_318)">
<path d="M15.9029 25.4292H20.5175C20.9626 25.4292 21.3232 25.0685 21.3232 24.6235C21.3232 24.1786 20.9626 23.8179 20.5175 23.8179H15.9029C15.4578 23.8179 15.0972 24.1786 15.0972 24.6235C15.0972 25.0685 15.4578 25.4292 15.9029 25.4292Z" fill="#58B158"/>
<path d="M15.9029 29.3335H34.6448C35.0898 29.3335 35.4505 28.9728 35.4505 28.5278C35.4505 28.0829 35.0898 27.7222 34.6448 27.7222H15.9029C15.4578 27.7222 15.0972 28.0829 15.0972 28.5278C15.0972 28.9728 15.4578 29.3335 15.9029 29.3335Z" fill="#58B158"/>
<path d="M34.6448 31.627H29.6484C29.2034 31.627 28.8428 31.9877 28.8428 32.4326C28.8428 32.8776 29.2034 33.2383 29.6484 33.2383H34.6448C35.0899 33.2383 35.4505 32.8776 35.4505 32.4326C35.4505 31.9877 35.0898 31.627 34.6448 31.627Z" fill="#58B158"/>
<path d="M52.7307 5.40909L42.3024 0.197307C41.7761 -0.065769 41.1478 -0.065769 40.6216 0.197307L30.193 5.40909C30.1929 5.40909 30.1929 5.40909 30.1929 5.40909C29.5518 5.72953 29.1535 6.37385 29.1535 7.09068V8.58996H17.832C17.387 8.58996 17.0263 8.95069 17.0263 9.39563C17.0263 9.84057 17.387 10.2013 17.832 10.2013H29.1536V12.6515C29.1536 13.8267 29.2417 14.9439 29.418 16.0086H15.9029C15.4579 16.0086 15.0973 16.3693 15.0973 16.8143C15.0973 17.2592 15.4579 17.62 15.9029 17.62H29.7628C29.974 18.4149 30.2411 19.1783 30.5636 19.9132H15.9029C15.4579 19.9132 15.0973 20.2739 15.0973 20.7189C15.0973 21.1638 15.4579 21.5245 15.9029 21.5245H31.3874C31.6703 22.0055 31.9802 22.4733 32.318 22.9287C32.5403 23.2287 32.7754 23.5246 33.024 23.8178H23.7402C23.2952 23.8178 22.9345 24.1785 22.9345 24.6234C22.9345 25.0684 23.2952 25.4291 23.7402 25.4291H34.561C36.08 26.8586 37.9998 28.2659 40.4788 29.7829C40.7819 29.9684 41.1218 30.0611 41.4618 30.0611C41.8018 30.0611 42.1417 29.9684 42.4449 29.7829C42.5273 29.7325 42.6081 29.6824 42.6892 29.6323V49.1975H21.6098V47.6953C21.6098 47.2503 21.2492 46.8896 20.8041 46.8896C20.3591 46.8896 19.9985 47.2503 19.9985 47.6953V53.1201C19.9985 53.2681 19.8781 53.3886 19.7299 53.3886H3.10962C2.96148 53.3886 2.84106 53.2681 2.84106 53.1201V41.5156C2.84106 41.3676 2.96148 41.2471 3.10962 41.2471H19.7299C19.8781 41.2471 19.9985 41.3676 19.9985 41.5156V43.9355C19.9985 44.3805 20.3591 44.7412 20.8041 44.7412C21.2492 44.7412 21.6098 44.3805 21.6098 43.9355V41.5156C21.6098 41.3537 21.587 41.1973 21.5484 41.0474H34.6448C35.0899 41.0474 35.4505 40.6867 35.4505 40.2417C35.4505 39.7968 35.0899 39.4361 34.6448 39.4361H19.0209V37.1428H34.6447C35.0898 37.1428 35.4504 36.7821 35.4504 36.3371C35.4504 35.8922 35.0898 35.5315 34.6447 35.5315H18.9872C18.9128 34.7242 18.7122 33.9531 18.4043 33.2382H26.748C27.1931 33.2382 27.5537 32.8775 27.5537 32.4326C27.5537 31.9876 27.1931 31.6269 26.748 31.6269H17.4596C16.0694 29.809 13.8797 28.6334 11.4198 28.6334C10.1334 28.6334 8.92136 28.9556 7.8582 29.5221V10.2013H14.0722C14.5173 10.2013 14.8779 9.84057 14.8779 9.39563C14.8779 8.95069 14.5173 8.58996 14.0722 8.58996H7.58965C6.84919 8.58996 6.24688 9.19228 6.24688 9.93274V30.672C4.75446 32.0608 3.8186 34.04 3.8186 36.2346V39.6356H3.10962C2.07311 39.6356 1.22974 40.479 1.22974 41.5155V53.1201C1.22974 54.1566 2.07311 55 3.10962 55H19.7299C20.7664 55 21.6098 54.1566 21.6098 53.1201V50.8087H42.9579C43.6983 50.8087 44.3006 50.2064 44.3006 49.4659V28.5973C47.1684 26.6782 49.1539 24.8868 50.6058 22.9287C52.735 20.0574 53.7701 16.6956 53.7701 12.6516V7.09068C53.7702 6.37396 53.3719 5.72964 52.7307 5.40909ZM14.1871 39.6357H8.65259V36.2347C8.65259 34.7087 9.89406 33.4674 11.4199 33.4674C12.9457 33.4674 14.1872 34.7087 14.1872 36.2347V39.6357H14.1871ZM5.42993 36.2347C5.42993 32.9318 8.11709 30.2447 11.4199 30.2447C14.7227 30.2447 17.4097 32.9318 17.4097 36.2347V39.6357H15.7985V36.2347C15.7985 33.8202 13.8343 31.856 11.4199 31.856C9.00547 31.856 7.04126 33.8202 7.04126 36.2347V39.6357H5.42993V36.2347ZM52.1589 12.6516C52.1589 20.3941 48.1202 24.4209 41.604 28.4084C41.5174 28.4614 41.4059 28.4613 41.3198 28.4084C34.8035 24.4208 30.7648 20.3941 30.7648 12.6516V7.09068C30.7648 6.9882 30.8218 6.89613 30.9134 6.85037L41.3418 1.63848C41.4169 1.60088 41.5066 1.60088 41.5819 1.63848L52.0102 6.85027C52.1018 6.89603 52.1588 6.98809 52.1588 7.09057V12.6516H52.1589Z" fill="#58B158"/>
<path d="M41.4134 5.6001C36.9178 5.6001 33.2606 9.25749 33.2606 13.753C33.2606 18.2485 36.918 21.9059 41.4134 21.9059C44.8528 21.9059 47.9393 19.7295 49.0939 16.4902C49.2433 16.0712 49.0246 15.6102 48.6056 15.4608C48.1865 15.3114 47.7256 15.5301 47.5761 15.9491C46.6496 18.5482 44.173 20.2944 41.4134 20.2944C37.8064 20.2944 34.8719 17.3599 34.8719 13.7529C34.8719 10.1459 37.8064 7.21132 41.4134 7.21132C44.5893 7.21132 47.2971 9.47803 47.8518 12.6009C47.9297 13.039 48.3481 13.3315 48.7859 13.2533C49.224 13.1755 49.5161 12.7572 49.4383 12.3191C48.7467 8.42583 45.3718 5.6001 41.4134 5.6001Z" fill="#58B158"/>
<path d="M44.208 11.5479L41.0336 14.7223L39.1878 12.8764C38.8731 12.5618 38.3631 12.5617 38.0484 12.8764C37.7337 13.191 37.7337 13.7012 38.0484 14.0157L40.4638 16.4313C40.615 16.5825 40.8198 16.6673 41.0336 16.6673C41.2474 16.6673 41.4521 16.5825 41.6034 16.4313L45.3475 12.6872C45.6621 12.3726 45.6621 11.8624 45.3475 11.5479C45.0328 11.2334 44.5228 11.2334 44.208 11.5479Z" fill="#58B158"/>
</g>
<defs>
<clipPath id="clip0_44_318">
<rect width="55" height="55" fill="white"/>
</clipPath>
</defs>
</svg>
