<svg width="26" height="26" viewBox="0 0 26 26" fill="none" xmlns="http://www.w3.org/2000/svg">
<path d="M25.771 5.16553L17.8857 13L25.771 20.8345C25.9135 20.5366 26 20.2072 26 19.8555V6.14454C26 5.79278 25.9135 5.46346 25.771 5.16553Z" fill="white"/>
<path d="M23.7148 3.85938H2.28515C1.93339 3.85938 1.60407 3.94586 1.30614 4.0884L11.3843 14.1158C12.2754 15.0069 13.7245 15.0069 14.6156 14.1158L24.6938 4.0884C24.3959 3.94586 24.0666 3.85938 23.7148 3.85938Z" fill="white"/>
<path d="M0.229023 5.16553C0.0864805 5.46346 0 5.79278 0 6.14454V19.8555C0 20.2072 0.0864805 20.5366 0.229023 20.8345L8.11429 13L0.229023 5.16553Z" fill="white"/>
<path d="M16.8086 14.0771L15.6928 15.193C14.208 16.6778 11.792 16.6778 10.3072 15.193L9.1914 14.0771L1.30614 21.9116C1.60407 22.0542 1.93339 22.1407 2.28515 22.1407H23.7148C24.0666 22.1407 24.3959 22.0542 24.6938 21.9116L16.8086 14.0771Z" fill="white"/>
</svg>
