<svg width="32" height="32" viewBox="0 0 32 32" fill="none" xmlns="http://www.w3.org/2000/svg">
<g clip-path="url(#clip0_12_220)">
<path d="M6.32988 15.4919C4.28275 15.4919 2.61743 13.8417 2.61743 11.814C2.61743 9.78604 4.28275 8.13583 6.32988 8.13583C8.37676 8.13583 10.0418 9.78578 10.0418 11.814C10.0418 13.842 8.37676 15.4919 6.32988 15.4919ZM6.32988 9.16809C4.85181 9.16809 3.64969 10.3551 3.64969 11.814C3.64969 13.2727 4.85181 14.4597 6.32988 14.4597C7.80745 14.4597 9.00957 13.2727 9.00957 11.814C9.00957 10.3551 7.80745 9.16809 6.32988 9.16809Z" fill="#58B158"/>
<path d="M7.82334 25.6754H1.34904C0.605091 25.6754 0 25.0741 0 24.3349V22.6467C0 19.1905 2.83947 16.3785 6.32989 16.3785C7.70262 16.3785 9.00933 16.807 10.1076 17.6172C10.3369 17.7865 10.3858 18.1096 10.2165 18.3392C10.0471 18.5683 9.7243 18.6172 9.49471 18.4481C8.5751 17.7697 7.48085 17.4108 6.32989 17.4108C3.40877 17.4108 1.03226 19.7598 1.03226 22.6467V24.3349C1.03226 24.5048 1.1744 24.6431 1.34904 24.6431H7.82359C8.10837 24.6431 8.33972 24.8742 8.33972 25.1593C8.33972 25.444 8.10837 25.6754 7.82334 25.6754Z" fill="#58B158"/>
<path d="M30.6509 25.2848H24.1766C23.8919 25.2848 23.6605 25.0537 23.6605 24.7687C23.6605 24.4839 23.8919 24.2525 24.1766 24.2525H30.6512C30.8258 24.2525 30.968 24.1144 30.968 23.9446V22.2563C30.968 19.369 28.5915 17.0204 25.6703 17.0204C24.4503 17.0204 23.2593 17.4405 22.3165 18.2036C22.0952 18.3828 21.7704 18.3488 21.5907 18.1273C21.4115 17.9057 21.4453 17.5806 21.6673 17.4012C22.7931 16.4902 24.2147 15.9882 25.6703 15.9882C29.1605 15.9882 32 18.7999 32 22.2563V23.9446C32 24.6835 31.3949 25.2848 30.6509 25.2848Z" fill="#58B158"/>
<path d="M25.6701 15.2369C23.6233 15.2369 21.9582 13.5869 21.9582 11.559C21.9582 9.531 23.6233 7.8808 25.6701 7.8808C27.7173 7.8808 29.3826 9.53075 29.3826 11.559C29.3826 13.5872 27.717 15.2369 25.6701 15.2369ZM25.6701 8.91306C24.1926 8.91306 22.9904 10.1001 22.9904 11.559C22.9904 13.0179 24.1926 14.2046 25.6701 14.2046C27.1482 14.2046 28.3503 13.0179 28.3503 11.559C28.3503 10.1001 27.148 8.91306 25.6701 8.91306Z" fill="#58B158"/>
<path d="M23.0051 27.3548H8.99497C8.06428 27.3548 7.30722 26.6033 7.30722 25.6794V23.3049C7.30722 18.5595 11.2064 14.6988 16 14.6988C20.7936 14.6988 24.6928 18.5595 24.6928 23.3049V25.6794C24.6928 26.6033 23.9358 27.3548 23.0051 27.3548ZM16 15.7313C11.776 15.7313 8.33948 19.129 8.33948 23.3052V25.6797C8.33948 26.0343 8.63358 26.3228 8.99497 26.3228H23.0048C23.3662 26.3228 23.6603 26.0343 23.6603 25.6797V23.3052C23.6605 19.129 20.2241 15.7313 16 15.7313Z" fill="#58B158"/>
<path d="M15.8206 14.0958C13.1905 14.0958 11.0504 11.9761 11.0504 9.37021C11.0504 6.76461 13.1903 4.64516 15.8206 4.64516C18.4511 4.64516 20.591 6.76486 20.591 9.37046C20.591 11.9763 18.4509 14.0958 15.8206 14.0958ZM15.8206 5.67742C13.7596 5.67742 12.0827 7.33417 12.0827 9.37046C12.0827 11.407 13.7596 13.0638 15.8206 13.0638C17.8818 13.0638 19.5587 11.407 19.5587 9.37046C19.5587 7.33417 17.8818 5.67742 15.8206 5.67742Z" fill="#58B158"/>
</g>
<defs>
<clipPath id="clip0_12_220">
<rect width="32" height="32" fill="white"/>
</clipPath>
</defs>
</svg>
