<svg width="97" height="97" viewBox="0 0 97 97" fill="none" xmlns="http://www.w3.org/2000/svg">
<g clip-path="url(#clip0_12_86)">
<path d="M57.5521 57.0246L57.7271 57.877C57.7008 58.2412 57.6516 58.6034 57.5933 58.9661C57.0542 62.2911 55.28 65.4149 52.6723 67.5581C49.7891 69.938 45.916 71.0852 42.2006 70.6668C39.6295 70.3772 37.1967 69.3863 34.6843 68.7736C32.1676 68.1671 29.3877 67.9689 27.109 69.1958C27.7525 66.0206 28.3934 62.8372 29.5198 59.8018C30.641 56.7705 32.2628 53.8674 34.6217 51.6504C36.5367 49.8461 38.9735 48.5281 41.5588 48.1268C42.1526 48.0357 42.7494 47.9907 43.3535 48.0001C46.2449 48.0387 49.0151 49.285 51.3448 50.9961C53.6788 52.7024 55.6215 54.8719 57.5521 57.0246Z" fill="#689F38"/>
<path d="M31.7879 65.5564C32.9099 65.2422 34.0782 65.1452 35.2225 64.9309C37.9025 64.4301 40.4579 63.2733 42.6036 61.5899C43.9397 60.5417 45.1441 59.2525 45.7595 57.6692C46.375 56.086 46.3146 54.1734 45.3039 52.8105C44.1793 51.2921 42.0762 50.7277 40.2173 51.0626C38.3583 51.3974 36.7179 52.4953 35.3261 53.7723C33.6152 55.3405 32.2007 57.2284 31.148 59.2952C30.6186 60.3368 30.1802 61.4233 29.8397 62.5407C29.519 63.5964 29.1079 64.8698 29.1272 65.9849C29.1398 66.6653 29.4441 66.7082 29.9346 66.3814C30.5008 66.0031 31.134 65.7393 31.7879 65.5564Z" fill="#CBCB25"/>
<path d="M61.4945 60.2235C57.6316 58.7084 52.2021 57.3879 48.0344 57.5655C45.9608 57.6549 43.8856 58.0557 41.9245 58.8032C39.9662 59.5475 38.1195 60.6493 36.5792 62.1204C37.9985 60.5337 39.7809 59.2635 41.7275 58.3436C43.6764 57.4213 45.791 56.8333 47.9503 56.5697C52.2848 56.0424 56.6912 56.7605 60.8333 58.0236L61.4945 60.2235Z" fill="#558B2F"/>
<path d="M57.5521 57.0246L57.7271 57.877C57.7008 58.2412 57.6516 58.6034 57.5933 58.9661C55.4581 58.726 47.6273 57.2656 41.8083 48.5125C41.7201 48.3832 41.6373 48.2574 41.558 48.1261C42.1518 48.0349 42.7486 47.99 43.3527 47.9993C46.2441 48.0379 49.0143 49.2843 51.344 50.9954C53.6788 52.7024 55.6215 54.8719 57.5521 57.0246Z" fill="#558B2F"/>
<path d="M58.1823 57.2285C58.1823 57.2285 48.808 57.0959 42.2744 47.0747C35.7409 37.0534 37.5973 29.2011 40.2595 24.1041C42.9218 19.0087 49.5394 9.3336 49.5394 9.3336C49.5394 9.3336 50.8766 15.0226 57.6734 20.636C64.4701 26.2494 70.6389 36.8881 67.2946 44.4621C63.9504 52.0375 58.1823 57.2285 58.1823 57.2285Z" fill="#CBCB25"/>
<path d="M41.3745 27.1733C39.961 32.4403 40.0937 38.1993 42.2594 43.205C44.4236 48.2107 48.723 52.3648 53.9654 53.866C55.7647 54.3821 57.938 54.5004 59.2783 53.194C60.4918 52.0129 60.5692 50.0298 59.9669 48.4466C59.3638 46.8641 58.2142 45.5648 57.1708 44.2315C53.4559 39.4826 50.9303 33.8362 49.7451 27.9317C49.1505 24.961 48.8927 21.9223 48.9953 18.8949C49.0204 18.1633 49.0654 17.4338 49.1333 16.7063C49.1898 16.0885 49.5039 15.1455 49.3368 14.5508C48.8338 12.7479 47.0168 15.8024 46.6584 16.3027C44.3016 19.5915 42.426 23.2548 41.3745 27.1733Z" fill="#CBCB25"/>
<path d="M66.4421 66.6382C61.2187 61.7341 52.0544 49.6793 50.0932 42.8841C48.1328 36.0881 48.0518 28.815 49.8134 22.0598C48.3759 28.8919 48.8224 36.0621 51.0466 42.5834C53.2701 49.1054 62.6006 60.7376 67.7742 65.1491L66.4421 66.6382Z" fill="#689F38"/>
</g>
<defs>
<clipPath id="clip0_12_86">
<rect width="68.6344" height="68.6344" fill="white" transform="translate(0 50.8313) rotate(-47.7834)"/>
</clipPath>
</defs>
</svg>
